<svg xmlns="http://www.w3.org/2000/svg" viewBox="0 0 128 128">
  <defs>
    <linearGradient id="g" x1="0" x2="1" y1="0" y2="1">
      <stop offset="0%" stop-color="#f7931a"/>
      <stop offset="100%" stop-color="#ff7a3d"/>
    </linearGradient>
  </defs>
  <rect x="8" y="8" width="112" height="112" rx="24" fill="url(#g)"/>
  <g fill="#fff">
    <path d="M71 27a5 5 0 0 1 0 10h-4v6h3a5 5 0 1 1 0 10h-3v6h5a5 5 0 1 1 0 10h-5v12a5 5 0 0 1-10 0V69h-6v12a5 5 0 0 1-10 0V69h-3a5 5 0 1 1 0-10h3v-6h-2a5 5 0 1 1 0-10h2v-6h-1a5 5 0 1 1 0-10h1v-6a5 5 0 0 1 10 0v6h6v-6a5 5 0 0 1 10 0v6h4z" opacity=".15"/>
    <!-- Bitcoin-like B glyph -->
    <path d="M74.7 56.8c3.1-1.9 4.9-4.9 4.9-9 0-8.4-6.7-12.6-17.9-12.6h-2.3v-6.1h-6.2v6.1h-4.3v6.2h4.3v24.8h-4.3v6.2h4.3v6.1h6.2v-6.1h1.8c12.3 0 19.6-4.5 19.6-13.2 0-5.6-2.9-9-6.1-10.4zM59.4 43.2h5.1c5.5 0 8.3 1.6 8.3 5 0 3.6-2.8 5.4-8.6 5.4h-4.8v-10.4zm4.2 26.6h-4.2V58.6h5.1c6.7 0 9.8 1.9 9.8 5.7 0 4.2-3.3 5.5-10.7 5.5z"/>
  </g>
</svg>

